PathFileType	4	(x/y/z)	TRC_MarkerData\Passive\Passive_Pref0003.trc
DataRate	CameraRate	NumFrames	NumMarkers	Units	OrigDataRate	OrigDataStartFrame	OrigNumFrames
240	240	4	50	mm	240	76	300
Frame#	Time	R_AC			L_AC			HEAD			STERN			C7			L_IC			R_IC			L_ASIS			R_ASIS			L_GT			R_GT			L_PSIS			R_PSIS			SACRAL			L_LAT_KNEE			L_MED_KNEE			R_LAT_KNEE			R_MED_KNEE			L_LAT_ANK			L_MED_ANK			R_LAT_ANK			R_MED_ANK			L_THIGH_PROX_POST			L_THIGH_PROX_ANT			L_THIGH_DIST_ANT			L_THIGH_DIST_POST			R_THIGH_PROX_POST			R_THIGH_PROX_ANT			R_THIGH_DIST_ANT			R_THIGH_DIST_POST			L_SHANK_PROX_POST			L_SHANK_PROX_ANT			L_SHANK_DIST_ANT			L_SHANK_DIST_POST			R_SHANK_PROX_POST			R_SHANK_PROX_ANT			R_SHANK_DIST_ANT			R_SHANK_DIST_POST			L_HEEL_LAT			L_HEEL_SUP			L_HEEL_MED			R_HEEL_LAT			R_HEEL_SUP			R_HEEL_MED			L_1ST_MET			L_5TH_MET			L_TOE			R_1ST_MET			R_5TH_MET			R_TOE			
		X1	Y1	Z1	X2	Y2	Z2	X3	Y3	Z3	X4	Y4	Z4	X5	Y5	Z5	X6	Y6	Z6	X7	Y7	Z7	X8	Y8	Z8	X9	Y9	Z9	X10	Y10	Z10	X11	Y11	Z11	X12	Y12	Z12	X13	Y13	Z13	X14	Y14	Z14	X15	Y15	Z15	X16	Y16	Z16	X17	Y17	Z17	X18	Y18	Z18	X19	Y19	Z19	X20	Y20	Z20	X21	Y21	Z21	X22	Y22	Z22	X23	Y23	Z23	X24	Y24	Z24	X25	Y25	Z25	X26	Y26	Z26	X27	Y27	Z27	X28	Y28	Z28	X29	Y29	Z29	X30	Y30	Z30	X31	Y31	Z31	X32	Y32	Z32	X33	Y33	Z33	X34	Y34	Z34	X35	Y35	Z35	X36	Y36	Z36	X37	Y37	Z37	X38	Y38	Z38	X39	Y39	Z39	X40	Y40	Z40	X41	Y41	Z41	X42	Y42	Z42	X43	Y43	Z43	X44	Y44	Z44	X45	Y45	Z45	X46	Y46	Z46	X47	Y47	Z47	X48	Y48	Z48	X49	Y49	Z49	X50	Y50	Z50	

76	0.31355	-499.52	1540.2	422.51	-493.98	1561.5	30.558	-377.37	1847.4	240.58	-397.57	1509	231.22	-540.01	1595.5	226.64	-489.86	1102.2	70.376	-506.17	1125.7	409.63	-423.51	1044.5	106.78	-436.27	1045.1	376.99	-508.59	965.34	52.692	-518.33	971.92	425.87	-634.65	1066.7	186.78	-631.15	1064.5	294.3	-646.46	1041	241.34	-474.72	560.98	98.197	-468.65	574.38	234.59	-423.09	563.26	421.15	-377.25	552.17	288.85	-531.2	116.14	130.1	-540.96	121.33	206.32	-741.41	251.69	349.8	-692.96	243.4	258.61	-527.8	811.59	70.509	-461.97	806.44	66.87	-461.49	731.49	78.505	-527.19	737.34	83.741	-493.08	792.19	424.75	-427.39	809.19	434.33	-415.98	736.57	433.48	-480.42	718.64	419.6	-470.05	507.79	108.2	-428.84	523.4	123.02	-429.07	473.51	131.54	-475.58	454.22	115.63	-560.94	496.39	396.22	-508.62	456.56	421.26	-553.44	398.46	408.24	-606.53	435.87	384.97	-593.21	42.047	129.48	-607.06	68.644	162.75	-599.8	38.202	195.44	-821.04	256.05	307.78	-801.07	276.3	274.59	-801.29	243.7	244.65	-378.46	53.825	242.32	-384.82	44.928	136.07	-325.14	65.468	222.76	-641.32	89.782	294.65	-696.65	109.38	391.39	-613.59	71.841	353.54
77	0.31773	-494.32	1540.5	422.66	-488.5	1562.1	30.764	-371.84	1847.7	240.94	-392.28	1509.3	231.43	-534.74	1595.9	226.8	-484.8	1102.6	70.344	-500.97	1126.1	409.63	-418.52	1044.8	106.56	-430.95	1045.8	376.76	-503.89	965.61	52.731	-512.63	972.7	426.03	-629.49	1067.1	186.97	-625.94	1064.9	294.52	-641.27	1041.3	241.57	-472.15	561.06	98.126	-466	574.45	234.54	-413.53	564.7	421.65	-367.89	554.12	289.27	-530.86	116.44	130.09	-540.67	121.69	206.3	-727.49	248	350.46	-679.05	240.95	259.2	-523.88	812.03	70.469	-458.03	806.55	66.834	-457.97	731.56	78.46	-523.82	737.65	83.855	-485.75	793.2	425.33	-420.39	810.88	434.7	-408.07	738.32	433.95	-472.38	719.74	420.33	-467.74	507.86	108.13	-426.46	523.26	122.94	-426.91	473.39	131.43	-473.52	454.31	115.58	-550.8	495.74	396.98	-497.78	456.66	421.77	-541.74	397.89	408.8	-595.47	434.54	385.76	-593.09	42.39	129.49	-606.88	68.989	162.75	-599.61	38.48	195.41	-807.32	250.54	308.71	-788.16	271.4	275.45	-787.53	238.74	245.51	-378.3	53.628	242.31	-384.71	44.772	136.08	-324.95	65.101	222.76	-623.74	88.601	295.02	-679.42	106.72	391.85	-595.56	71.258	353.87
78	0.32191	-489.1	1540.9	422.82	-483.03	1562.6	30.973	-366.31	1848	241.3	-386.99	1509.7	231.64	-529.49	1596.4	226.98	-479.74	1103	70.322	-495.76	1126.5	409.63	-413.54	1044.9	106.36	-425.63	1046.4	376.55	-499.21	965.86	52.773	-506.94	973.46	426.18	-624.35	1067.4	187.16	-620.75	1065.2	294.75	-636.09	1041.6	241.81	-469.6	561.12	98.07	-463.37	574.5	234.5	-404.06	566.13	422.15	-358.67	556.04	289.67	-530.53	116.73	130.08	-540.39	122.04	206.28	-713.44	244.19	351.15	-665.02	238.38	259.81	-519.99	812.46	70.437	-454.13	806.64	66.808	-454.46	731.63	78.428	-520.46	737.94	83.979	-478.49	794.21	425.92	-413.47	812.56	435.08	-400.22	740.05	434.41	-464.4	720.84	421.05	-465.45	507.92	108.08	-424.08	523.12	122.89	-424.75	473.27	131.34	-471.47	454.4	115.54	-540.72	495.01	397.75	-486.99	456.73	422.29	-530.04	397.27	409.36	-584.42	433.11	386.54	-592.98	42.738	129.49	-606.69	69.336	162.75	-599.41	38.759	195.37	-793.42	244.87	309.66	-775.08	266.32	276.32	-773.64	233.61	246.41	-378.15	53.438	242.3	-384.59	44.626	136.08	-324.76	64.742	222.76	-606.05	87.396	295.44	-662.03	104.03	392.36	-577.41	70.682	354.24
79	0.32609	-483.86	1541.2	422.98	-477.58	1563.1	31.184	-360.79	1848.3	241.67	-381.7	1510	231.84	-524.25	1596.8	227.17	-474.69	1103.4	70.307	-490.54	1126.8	409.65	-408.57	1045.1	106.17	-420.31	1047	376.34	-494.54	966.08	52.821	-501.27	974.19	426.35	-619.22	1067.7	187.36	-615.57	1065.5	294.99	-630.92	1041.9	242.05	-467.07	561.19	98.033	-460.74	574.56	234.48	-394.69	567.55	422.63	-349.58	557.95	290.06	-530.19	117.03	130.07	-540.12	122.4	206.26	-699.26	240.26	351.85	-650.89	235.68	260.45	-516.11	812.88	70.415	-450.25	806.72	66.794	-450.99	731.68	78.409	-517.12	738.23	84.113	-471.29	795.22	426.53	-406.62	814.21	435.45	-392.44	741.75	434.86	-456.48	721.94	421.78	-463.16	507.98	108.04	-421.72	522.98	122.85	-422.61	473.15	131.26	-469.42	454.49	115.52	-530.7	494.2	398.5	-476.26	456.75	422.82	-518.35	396.59	409.92	-573.4	431.58	387.32	-592.86	43.091	129.5	-606.49	69.682	162.75	-599.2	39.037	195.33	-779.35	239.05	310.63	-761.83	261.07	277.2	-759.62	228.32	247.35	-378	53.254	242.3	-384.48	44.491	136.09	-324.57	64.392	222.76	-588.24	86.176	295.91	-644.51	101.33	392.92	-559.16	70.124	354.67
